<svg width="238" height="74" viewBox="0 0 238 74" fill="none" xmlns="http://www.w3.org/2000/svg">
<path d="M181.486 52.5894C181.278 53.1731 181.056 53.7465 180.814 54.3267C181.053 53.7465 181.278 53.1801 181.486 52.5894Z" fill="#21BF48"/>
<path d="M183.397 44.4412C183.327 45.0631 183.237 45.6782 183.13 46.2932C183.234 45.6782 183.324 45.0631 183.397 44.4412Z" fill="#21BF48"/>
<path d="M183.655 38.5862C183.655 37.9886 183.607 37.3944 183.563 36.7968C183.611 37.377 183.642 37.9712 183.655 38.5862Z" fill="#21BF48"/>
<path d="M183.664 40.7024C183.664 40.1916 183.664 39.6773 183.664 39.1665C183.681 39.6773 183.677 40.1881 183.664 40.7024Z" fill="#21BF48"/>
<path d="M238 16.2438V45.3654C238 60.2302 224.505 72.7844 208.528 72.7844C197.876 72.7844 188.331 67.1727 183.171 59.0141C186.757 52.3079 188.352 44.3021 187.679 36.1574C187.003 27.9154 184.049 20.2501 179.305 14.3292C179.754 11.8992 181.037 9.70311 182.931 8.12158C184.826 6.54005 187.214 5.67283 189.679 5.67024C192.476 5.67392 195.158 6.78921 197.135 8.77144C199.112 10.7537 200.224 13.441 200.227 16.2438V45.3654C200.227 48.2703 203.85 51.6442 208.524 51.6442C212.748 51.6442 216.891 48.5343 216.891 45.3654V16.2438C216.892 14.8536 217.167 13.4773 217.699 12.1935C218.231 10.9097 219.011 9.74349 219.993 8.7616C220.975 7.77971 222.14 7.00133 223.423 6.4709C224.705 5.94048 226.079 5.66841 227.466 5.67024C230.261 5.67759 232.938 6.7945 234.913 8.77634C236.887 10.7582 237.997 13.4434 238 16.2438Z" fill="#21BF48"/>
<path d="M54.7938 21.6644C52.0295 27.1041 50.5962 33.1247 50.6123 39.2291C50.6027 47.0705 52.9702 54.7299 57.4013 61.1928V61.7835C57.3985 64.587 56.286 67.2748 54.3079 69.2571C52.3298 71.2395 49.6477 72.3543 46.8502 72.3571C44.0534 72.3534 41.3721 71.2381 39.3948 69.2559C37.4174 67.2737 36.3054 64.5864 36.3026 61.7835V49.7992H21.1054V61.7835C21.1036 64.5867 19.9918 67.2745 18.0143 69.2569C16.0367 71.2393 13.355 72.3543 10.5578 72.3571C7.76096 72.3534 5.07975 71.2381 3.1024 69.2559C1.12504 67.2737 0.0130061 64.5864 0.0102539 61.7835V16.6713C0.0139235 13.869 1.12636 11.1826 3.10362 9.20114C5.08088 7.21966 7.76156 6.10484 10.5578 6.10117C13.3544 6.10393 16.0356 7.21844 18.013 9.20012C19.9905 11.1818 21.1027 13.8687 21.1054 16.6713V28.6556H36.3026V16.6713C36.3063 13.869 37.4187 11.1826 39.396 9.20114C41.3733 7.21966 44.054 6.10484 46.8502 6.10117C49.6471 6.10392 52.3287 7.21833 54.3067 9.19991C56.2847 11.1815 57.3976 13.8684 57.4013 16.6713V17.2724C56.4365 18.6772 55.5654 20.1444 54.7938 21.6644Z" fill="#21BF48"/>
<path d="M148.609 27.1509C148.141 27.1509 147.666 27.1509 147.188 27.1509C147.787 27.1509 148.38 27.1509 148.963 27.1509H148.609ZM165.474 70.161C165.928 69.9629 166.376 69.7579 166.813 69.539C166.376 69.7544 165.928 69.9629 165.474 70.161ZM180.814 54.3128C181.056 53.7464 181.278 53.1731 181.486 52.5755C181.278 53.1801 181.053 53.7464 180.814 54.3128ZM183.13 46.2932C183.237 45.6781 183.327 45.0631 183.397 44.4411C183.324 45.0631 183.234 45.6781 183.13 46.2932ZM183.563 36.7794C183.608 37.377 183.639 37.9712 183.657 38.5689C183.643 37.9712 183.612 37.377 183.563 36.7794ZM183.671 39.1665C183.671 39.6773 183.671 40.1916 183.671 40.7023C183.678 40.1881 183.681 39.6773 183.671 39.1665Z" fill="#21BF48"/>
<path d="M183.671 39.1665C183.612 32.9807 182.041 26.9036 179.097 21.4663C178.341 20.1023 177.489 18.7937 176.549 17.5503C176.164 17.05 175.772 16.56 175.36 16.084C173.513 13.9363 171.36 12.0745 168.969 10.5592C168.265 10.1106 167.538 9.6977 166.792 9.32219C166.13 8.97472 165.446 8.66893 164.756 8.38053C161.526 7.06883 158.096 6.31798 154.615 6.16018C150.78 6.10111 146.605 6.13585 142.673 6.06636C138.342 6.1011 133.946 5.87873 129.657 6.44163C124.716 7.64736 121.356 12.4807 121.727 17.5607C130.544 30.1392 130.371 48.5761 121.727 60.9148C121.614 62.7917 121.972 64.667 122.767 66.3701C123.629 68.1638 124.978 69.6775 126.66 70.7372C128.342 71.7969 130.288 72.3595 132.275 72.3605H140.69C152.076 72.3605 157.68 72.4821 160.63 71.815C166.334 70.4413 171.485 67.362 175.401 62.9857C175.748 62.6105 176.067 62.2248 176.382 61.8287C176.698 61.4325 176.951 61.099 177.228 60.7272C181.719 54.5317 183.778 46.7762 183.671 39.1665ZM162.79 40.3236C162.582 42.5891 162.097 44.8929 160.863 46.8248C160.475 47.4419 160.008 48.006 159.476 48.5031C158.436 49.4309 157.203 50.1146 155.866 50.5045C151.608 51.7485 147.219 51.1995 142.815 51.2273V27.2517C144.275 27.2517 145.745 27.1927 147.201 27.1718C152.798 27.0259 159.666 27.3351 161.827 33.5549C162.612 35.72 162.94 38.0248 162.79 40.3236Z" fill="#21BF48"/>
<path d="M108.922 1.00717C109.022 1.13334 109.11 1.26825 109.186 1.41025C109.111 1.268 109.022 1.13305 108.922 1.00717ZM69.5267 1.86892C69.5704 1.70942 69.6296 1.55462 69.7036 1.40677C69.6281 1.55396 69.5688 1.70892 69.5267 1.86892Z" fill="#21BF48"/>
<path d="M121.713 26.4247C119.371 20.5355 115.475 15.3959 110.441 11.5564C110.469 11.3688 109.491 2.56036 109.487 2.36925C109.418 1.72204 109.112 1.12337 108.629 0.688457C108.146 0.253541 107.519 0.0130983 106.87 0.0133851C105.66 -0.302814 99.3768 5.08299 98.3435 5.61115C92.5205 4.07533 86.4 4.07533 80.577 5.61115C79.4952 5.05172 73.2956 -0.275016 72.0509 0.0133851C71.4014 0.0145434 70.7751 0.255402 70.2915 0.689963C69.808 1.12452 69.5012 1.72235 69.4296 2.36925C69.4296 2.56384 68.4622 11.3583 68.4761 11.5529C42.3533 31.2303 56.2607 73.9936 89.4672 73.9936C113.614 74.4696 130.905 48.2842 121.713 26.4247ZM89.4672 52.8326C71.6452 52.5164 71.5897 25.9869 89.3978 25.5908C107.293 25.8444 107.359 52.5233 89.4672 52.8499V52.8326Z" fill="#21BF48"/>
</svg>
